<?xml version="1.0" encoding="UTF-8"?>
<svg width="1200pt" height="1200pt" version="1.1" viewBox="0 0 1200 1200" xmlns="http://www.w3.org/2000/svg">
 <path d="m181.98 888.79c58.023 2.6367 102.86-19.781 149.01-54.066 23.734-17.145 42.199-38.242 59.34-60.66 10.551-14.504 21.098-27.691 35.605-39.559 21.098-17.145 31.648-6.5938 34.285 18.461 1.3203 21.098 0 43.516 0 64.617 0 60.66 1.3203 121.32 0 183.3 0 14.504 11.867 26.375 26.375 26.375 77.801 1.3203 156.92 3.957 234.73 0 14.504 0 25.055-11.867 25.055-25.055 1.3203-48.793-1.3203-102.86 11.867-150.33 7.9102-29.012 46.152-64.617 67.254-17.145 7.9102 18.461 6.5938 47.473 7.9102 67.254 2.6367 32.969 2.6367 65.934 2.6367 98.902 0 14.504 11.867 27.691 26.375 26.375 56.703-1.3203 113.41-1.3203 170.11-7.9102 36.922-3.957 51.43-15.824 54.066-54.066 3.957-55.383 3.957-110.77 5.2734-166.15 1.3203-65.934 1.3203-131.87 2.6367-197.8 1.3203-46.152 5.2734-96.266-1.3203-142.42 7.9102 15.824 14.504 48.793 15.824 52.746 1.3203 15.824 2.6367 34.285 13.188 47.473 18.461 21.098 50.109 15.824 60.66-9.2305 7.9102-19.781-23.734-29.012-31.648-9.2305-1.3203-3.957-3.957-7.9102-6.5938-10.551-1.3203-5.2734-1.3203-10.551-1.3203-15.824 0-9.2305 0-17.145-1.3203-26.375-2.6367-15.824-6.5938-32.969-14.504-47.473-9.2305-17.145-26.375-29.012-44.836-27.691 0-1.3203-1.3203-3.957-1.3203-5.2734-36.922-97.582-137.14-162.2-240-155.61-23.734-30.328-52.746-56.703-83.078-72.527-76.484-40.879-172.75-30.328-257.14-26.375-85.715 3.957-176.7 9.2305-238.68 77.801-83.078 94.945-52.746 242.64-42.199 354.73 2.6367 29.012 14.504 67.254 7.9102 94.945-3.957 14.504-14.504 25.055-31.648 25.055-18.461 0-22.418-10.551-29.012-25.055-17.145-31.648-36.922-71.207-79.121-65.934-44.824 5.2656-72.516 44.824-79.109 85.703-6.5938 48.793 11.867 97.582 43.516 135.82 32.969 36.926 80.441 51.43 129.23 52.75zm-118.68-187.25c2.6367-11.867 14.504-38.242 31.648-30.328 6.5938 2.6367 13.188 19.781 15.824 25.055 15.824 30.328 29.012 63.297 68.57 67.254 113.41 11.867 114.73-104.18 109.45-185.93-6.5938-96.266-44.836-255.82 52.746-320.44 60.66-38.242 145.05-30.328 212.31-30.328 93.625 0 195.16 2.6367 247.91 93.625 32.969 55.383 50.109 121.32 14.504 178.02-35.605 56.703-97.582 89.672-159.56 106.81-23.734 6.5938-13.188 39.559 10.551 35.605 100.22-14.504 203.08-94.945 226.81-196.48 10.551-43.516 2.6367-90.988-17.145-134.5 92.309 6.5938 164.84 87.031 171.43 180.66 7.9102 108.13 2.6367 218.9 1.3203 327.03 0 46.152 0 92.309-2.6367 137.14 0 15.824-1.3203 14.504-14.504 17.145-7.9102 1.3203-19.781-1.3203-27.691-1.3203-38.242-2.6367-77.801-1.3203-116.04 0 0-40.879-1.3203-83.078-7.9102-123.96-3.957-26.375-9.2305-59.34-32.969-75.164-26.375-17.145-69.891-14.504-94.945 0-56.703 32.969-52.746 131.87-55.383 199.12-61.977-2.6367-122.64-1.3203-184.62 0 1.3203-77.801 7.9102-159.56-1.3203-237.36-3.957-31.648-19.781-63.297-55.383-68.57-40.879-5.2734-76.484 34.285-98.902 63.297-31.648 42.199-73.848 85.715-126.59 100.22-56.703 15.824-122.64-2.6367-151.65-54.066-13.188-18.465-21.098-46.16-15.824-72.531z"/>
 <path d="m428.57 532.75c9.2305 0 19.781-3.957 27.691-11.867 6.5938-6.5938 11.867-17.145 11.867-27.691-1.3203-21.098-17.145-38.242-38.242-38.242-9.2305 0-19.781 3.957-27.691 11.867-6.5938 6.5938-11.867 17.145-11.867 27.691 0 19.781 15.824 38.242 38.242 38.242z"/>
</svg>
