<?xml version="1.0" encoding="UTF-8" standalone="no"?>
<svg
   width="1200pt"
   height="1200pt"
   version="1.1"
   viewBox="0 0 1200 1200"
   xmlns="http://www.w3.org/2000/svg">
  <path
     d="m 359.1167,441.60059 c -16.17996,-0.55859 -31.97219,5.01137 -44.22217,15.59765 -35.85492,32.86694 -24.94931,117.53045 16.87061,174.59033 58.07788,79.19886 167.72021,127.48975 196.91015,127.48975 l -0.0498,-0.0864 c 0,-48.3589 -7.68052,-159.5999 -65.7627,-254.6997 h 0.004 C 441.00823,467.46525 402.05462,443.85057 359.1167,441.60059 Z"
  />
  <path
     d="m 840.89648,441.5625 c -42.9769,2.2344 -81.97715,25.86275 -103.85009,62.92969 -58.0779,95.1248 -65.76123,206.3998 -65.76123,254.6997 l 0.0498,0.0483 c 29.18394,0 138.83028,-48.2769 196.91016,-127.48974 41.81814,-57.05647 52.72544,-141.713 16.875,-174.58594 l -0.001,-0.001 C 872.86889,446.57798 857.07577,441.00852 840.89648,441.5625 Z"
  />
  <path
     d="m 552.48633,140.63965 -2.47266,79.19971 h -92.56494 v 95.03906 h 89.57813 l -4.34473,107.58984 c -1.7344,-2.0312 -3.52681,-4.0312 -5.37451,-6 -56.3299,-59.87088 -130.35544,-101.50049 -201.3003,-101.50049 -39.62692,-0.203 -78.00998,13.81667 -108.16992,39.51563 -94.9798,79.19984 -94.97991,261.35041 35.81983,366.70019 74.11884,59.67988 140.51704,117.20528 137.23974,201.3501 l -133.1997,18 V 1059.334 H 932.37744 V 940.53369 l -133.19971,-18 C 795.89775,838.38387 862.29262,780.85947 936.41748,721.18359 1067.2642,615.83381 1067.2641,433.68224 972.2373,354.4834 942.05936,328.76444 903.64499,314.74511 863.99707,314.96777 c -70.94986,0 -144.9812,41.64065 -201.30908,101.51953 -1.8477,1.9609 -3.64158,3.96092 -5.37598,6 l -4.34326,-107.58984 h 89.58984 V 219.8584 h -92.5664 l -2.47266,-79.19824 0.006,-0.0205 z M 840.89648,441.5625 c 16.17929,-0.55398 31.97241,5.01548 44.22217,15.60059 l 0.001,0.001 c 35.85044,32.87294 24.94314,117.52947 -16.875,174.58594 -58.07988,79.21284 -167.72622,127.48974 -196.91016,127.48974 l -0.0498,-0.0483 c 0,-48.2999 7.68333,-159.5749 65.76123,-254.6997 21.87294,-37.06694 60.87319,-60.69529 103.85009,-62.92969 z m -481.77978,0.0381 c 42.93792,2.24998 81.89153,25.86466 103.75049,62.8916 h -0.004 c 58.08218,95.0998 65.7627,206.3408 65.7627,254.6997 l 0.0498,0.0864 c -29.18994,0 -138.83227,-48.29089 -196.91015,-127.48975 -41.81992,-57.05988 -52.72553,-141.72339 -16.87061,-174.59033 12.24998,-10.58628 28.04221,-16.15624 44.22217,-15.59765 z"
     style="fill:#73AF47"
  />
  <path
     d="m 647.52393,44.692383 -0.0498,0.01611 -94.98779,-0.0029 c -22.54696,0 -44.37871,7.933599 -61.65967,22.417969 -17.28496,14.479972 -28.91732,34.581315 -32.8623,56.780275 h -0.51563 c -25.46094,0 -49.87983,10.11664 -67.88379,28.1206 -18.00396,17.99998 -28.11621,42.41844 -28.11621,67.8794 v 0.28857 c -8.49608,-0.80078 -16.97417,-1.19824 -25.43115,-1.19824 -62.09788,-0.14062 -122.22905,21.76209 -169.68897,61.81201 -65.51986,54.5509 -102.66109,139.7895 -101.87109,233.79932 0.800778,54.27288 13.68877,107.69045 37.71973,156.36035 24.03494,48.6719 58.60953,91.37483 101.21045,125.00977 22.72694,18.28896 41.71045,34.28554 56.87841,48.70752 l -5.4375,0.72949 c -23.02127,3.11412 -44.13337,14.47494 -59.42138,31.96582 -15.28498,17.49596 -23.71143,39.94044 -23.71143,63.17138 v 118.8003 c 0,25.461 10.11225,49.8798 28.11621,67.8838 18.00396,18.004 42.42285,28.1162 67.88379,28.1162 h 664.60986 c 25.46096,0 49.87836,-10.1122 67.88234,-28.1162 18.004,-18.004 28.1177,-42.4228 28.1177,-67.8838 V 940.5498 c 0,-23.22994 -8.4263,-45.67542 -23.7115,-63.17138 -15.2889,-17.49196 -36.4018,-28.85284 -59.42574,-31.96582 l -5.4375,-0.72949 c 15.16796,-14.39798 34.15146,-30.42256 56.87842,-48.70752 h 0.004 c 42.60493,-33.63694 77.18043,-76.33987 101.21043,-125.00977 24.031,-48.6719 36.9173,-102.09047 37.7183,-156.36035 0.8515,-94.00782 -36.3478,-179.24942 -101.8696,-233.79932 -47.453,-40.05092 -107.58036,-61.96073 -169.68022,-61.82373 -8.4492,0 -16.92571,0.39748 -25.42969,1.19824 v -0.28857 c 0,-25.46094 -10.11372,-49.87983 -28.11768,-67.88379 -18.00396,-17.99996 -42.42138,-28.11621 -67.88232,-28.11621 h -0.51563 C 738.10208,101.69313 726.47002,81.590322 709.18506,67.110352 691.9041,52.62638 670.07487,44.692383 647.52393,44.692383 Z m -95.0376,95.947267 h 95.03906 l -0.006,0.0205 2.47266,79.19824 h 92.5664 v 95.03906 h -89.58984 l 4.34326,107.58984 c 1.7344,-2.03908 3.52828,-4.0391 5.37598,-6 56.32788,-59.87888 130.35922,-101.51953 201.30908,-101.51953 39.64792,-0.22266 78.06229,13.79667 108.24023,39.51563 95.0268,79.19884 95.0269,261.35041 -35.81982,366.70019 -74.12486,59.67588 -140.51973,117.20028 -137.23975,201.3501 l 133.19971,18 V 1059.334 H 267.69727 V 940.53369 l 133.1997,-18 C 404.17427,838.38887 337.77607,780.86347 263.65723,721.18359 132.85749,615.83381 132.8576,433.68324 227.8374,354.4834 c 30.15994,-25.69896 68.543,-39.71863 108.16992,-39.51563 70.94486,0 144.9704,41.62961 201.3003,101.50049 1.8477,1.9688 3.64011,3.9688 5.37451,6 l 4.34473,-107.58984 h -89.57813 v -95.03906 h 92.56494 z"
   />
</svg>
