<?xml version="1.0" encoding="UTF-8"?>
<svg width="1200pt"
     height="1200pt"
     version="1.1"
     viewBox="0 0 1200 1200"
     xmlns="http://www.w3.org/2000/svg">
  <path fill="#73AF47"
        stroke="black"
        stroke-width="40"
        d="m956.5 775.7-4.9453-2.8203c-38.383-22.5-73.539-50.098-104.51-82.043l-0.58984-0.625h0.003906c19.754-18.16 30.98-43.773 30.945-70.605v-103.14c0.015625-31.207-15.137-60.473-40.629-78.469l-5.1719-3.6016c19.449-51.531 21.539-108 5.9531-160.83-15.59-52.828-48-99.125-92.309-131.84s-98.09-50.074-153.17-49.43c-55.074 0.64844-108.43 19.262-151.96 53.016-43.531 33.75-74.844 80.793-89.188 133.97-14.34 53.18-10.926 109.59 9.7305 160.65-23.973 18.141-38.062 46.469-38.062 76.535v103.14c-0.035156 26.832 11.191 52.445 30.945 70.605l-0.58984 0.625h0.003906c-30.973 31.949-66.133 59.547-104.52 82.043l-4.9336 2.8203c-14.699 8.3984-26.914 20.531-35.414 35.172-8.4961 14.641-12.973 31.266-12.969 48.191v152.77c0 25.461 10.113 49.879 28.117 67.883 18.004 18.004 42.422 28.117 67.883 28.117h617.76c25.461 0 49.879-10.113 67.883-28.117 18.004-18.004 28.117-42.422 28.117-67.883v-152.77c0.003906-16.926-4.4727-33.551-12.969-48.191-8.5-14.641-20.715-26.773-35.414-35.172zm-47.617 236.14h-617.76v-152.77l4.9453-2.832h-0.003906c46.48-27.16 89.027-60.551 126.46-99.238 39.695-41.734 70.367-89.578 74.137-137.39h-78v-103.14l74.258-52.414-0.003906-0.003907c-32.352-27.789-52-67.555-54.414-110.14-2.4141-42.582 12.609-84.312 41.613-115.58s69.488-49.387 112.13-50.176c42.645-0.78906 83.77 15.816 113.91 45.992 30.145 30.176 46.699 71.324 45.863 113.96-0.83984 42.645-19 83.105-50.305 112.07l79.727 56.281v103.14h-78.094c3.7695 47.809 34.441 95.652 74.137 137.39 37.434 38.688 79.98 72.074 126.46 99.238l4.9453 2.832z" />
</svg>
