<?xml version="1.0" encoding="UTF-8" standalone="no"?>
<svg
   width="1200pt"
   height="1200pt"
   version="1.1"
   viewBox="0 0 1200 1200"
   xmlns="http://www.w3.org/2000/svg">
  <path
     d="m 742.56445,148.5498 c -24.87094,-0.015 -48.30868,11.65276 -63.28564,31.51172 -14.98018,19.85996 -19.75687,45.59874 -12.90527,69.5127 6.85598,23.90994 24.54266,43.21042 47.76562,52.1206 L 600.00879,560.39502 485.83887,301.69482 c 24.26194,-9.31998 42.40628,-29.95307 48.55078,-55.20703 6.14398,-25.25394 -0.49234,-51.91779 -17.7583,-71.34375 -17.26998,-19.42576 -42.96908,-29.14011 -68.77002,-25.99951 -25.80096,3.144 -48.41804,18.74116 -60.52002,41.74512 -12.10117,23.00396 -12.14417,50.48155 -0.11719,73.52051 12.02398,23.04294 34.59085,38.71482 60.38379,41.9414 L 412.32715,592.0708 242.05664,444.21094 c 19.13626,-17.77296 28.2768,-43.83603 24.44092,-69.66797 -3.836,-25.83196 -20.16329,-48.10971 -43.63623,-59.55469 -23.47696,-11.44148 -51.08241,-10.57544 -73.79737,2.31152 -22.71094,12.89098 -37.60941,36.14941 -39.82031,62.17237 -2.215,26.01994 8.54246,51.46201 28.75342,68.00097 20.21096,16.53878 47.27428,22.05418 72.34424,14.7378 l 88.70361,304.10888 91.72705,150.07032 -91.72705,16.22314 v 118.80032 l 603.13916,0 V 932.61768 l -92.90185,-16.29786 91.68017,-150 88.70362,-304.11914 c 24.97298,7.262 51.92108,1.74951 72.03808,-14.73047 20.1167,-16.48396 30.8164,-41.82336 28.6055,-67.7373 -2.211,-25.91394 -17.051,-49.07418 -39.668,-61.91016 -22.621,-12.83936 -50.1126,-13.70436 -73.4956,-2.31738 -23.37896,11.39098 -39.64799,33.57099 -43.48389,59.29395 -3.84,25.72194 5.24561,51.6864 24.28857,69.40136 l -170.2705,147.88037 -35.28077,-285.7207 c 26.94596,-3.336 50.30553,-20.23705 61.89551,-44.79199 11.59018,-24.55096 9.79315,-53.32902 -4.75781,-76.25098 C 794.99013,162.39544 769.712,148.5249 742.56006,148.56006 Z"
     style="fill:#81858B" />
  <path
     d="m 742.55859,52.546875 0.006,0.0029 c -27.89494,0 -55.38419,6.668432 -80.18115,19.441406 C 637.58636,84.764185 616.19937,103.28025 600.00439,125.99121 578.43045,95.792272 547.82895,73.225458 512.60303,61.54248 477.38009,49.858504 439.35662,49.663504 404.0127,60.97998 c -35.34394,11.319978 -66.18045,33.566126 -88.06641,63.53906 -21.88296,29.97294 -33.68266,66.12007 -33.70166,103.22901 0,3.64838 0.11279,7.27447 0.33545,10.87207 -28.18394,-18.06196 -60.95275,-27.67241 -94.42969,-27.69141 -33.47694,-0.0195 -66.2579,9.55038 -94.464843,27.58154 -28.206944,18.03098 -50.656923,43.76631 -64.691895,74.15625 -14.034972,30.39494 -19.0701972,64.172 -14.512207,97.33594 4.562492,33.16394 18.530949,64.32784 40.253907,89.80078 21.718956,25.47296 50.281628,44.1915 82.309568,53.93848 l 69.83936,239.44922 c 2.37888,8.14838 5.82519,15.9451 10.25097,23.18408 l 24.167,39.60205 c -24.07796,18.12896 -38.24533,46.5168 -38.25733,76.65674 v 118.80031 c 0,25.461 10.11372,49.8779 28.11768,67.8779 18.00396,18.004 42.42138,28.1221 67.88232,28.1221 h 603.14063 c 25.46094,0 49.87836,-10.1181 67.88232,-28.1221 18.00396,-18 28.11768,-42.4169 28.11768,-67.8779 V 932.63379 c 0,-30.52694 -14.52091,-59.23768 -39.10987,-77.32764 L 982.87354,816.375 c 4.42578,-7.23828 7.87061,-15.0351 10.24951,-23.18408 L 1062.9624,553.7417 v 0.004 c 32.027,-9.74608 60.5906,-28.46553 82.3096,-53.93847 21.723,-25.47296 35.6909,-56.63686 40.2539,-89.80078 4.5586,-33.16394 -0.4768,-66.941 -14.5122,-97.33594 -14.035,-30.39094 -36.4835,-56.12529 -64.6905,-74.15625 -28.2068,-18.03096 -60.9878,-27.60154 -94.4648,-27.58154 -33.47694,0.0195 -66.24721,9.62786 -94.43115,27.68994 0.23047,-3.6016 0.34472,-7.22231 0.33691,-10.87061 -0.0547,-46.4489 -18.53106,-90.98464 -51.375,-123.83056 C 833.54122,71.077936 789.00951,52.601875 742.55859,52.546875 Z m 0.006,96.002925 -0.004,0.0103 c 27.15194,-0.0352 52.43007,13.83538 66.97705,36.75732 14.55096,22.92196 16.34799,51.70002 4.75781,76.25098 -11.58998,24.55494 -34.94955,41.45599 -61.89551,44.79199 l 35.28077,285.7207 170.2705,-147.88037 c -19.04296,-17.71496 -28.12857,-43.67942 -24.28857,-69.40136 3.8359,-25.72296 20.10493,-47.90297 43.48389,-59.29395 23.383,-11.38698 50.8746,-10.52198 73.4956,2.31738 22.617,12.83598 37.457,35.99622 39.668,61.91016 2.2109,25.91394 -8.4888,51.25334 -28.6055,67.7373 -20.117,16.47998 -47.0651,21.99247 -72.03808,14.73047 l -88.70362,304.11914 -91.68017,150 92.90185,16.29786 V 1051.418 l -603.13916,-0 V 932.61328 L 390.77197,916.39014 299.04492,766.31982 210.34131,462.21094 c -25.06996,7.31638 -52.13328,1.80098 -72.34424,-14.7378 -20.21096,-16.53896 -30.96842,-41.98103 -28.75342,-68.00097 2.2109,-26.02296 17.10937,-49.28139 39.82031,-62.17237 22.71496,-12.88696 50.32041,-13.753 73.79737,-2.31152 23.47294,11.44498 39.80023,33.72273 43.63623,59.55469 3.83588,25.83194 -5.30466,51.89501 -24.44092,69.66797 L 412.32715,592.0708 447.60791,306.35156 c -25.79294,-3.22658 -48.35981,-18.89846 -60.38379,-41.9414 -12.02698,-23.03896 -11.98398,-50.51655 0.11719,-73.52051 12.10198,-23.00396 34.71906,-38.60112 60.52002,-41.74512 25.80094,-3.1406 51.50004,6.57375 68.77002,25.99951 17.26596,19.42596 23.90228,46.08981 17.7583,71.34375 -6.1445,25.25396 -24.28884,45.88705 -48.55078,55.20703 l 114.16992,258.7002 114.13037,-258.7002 c -23.22296,-8.91018 -40.90964,-28.21066 -47.76562,-52.1206 -6.8516,-23.91396 -2.07491,-49.65274 12.90527,-69.5127 14.97696,-19.85896 38.4147,-31.52672 63.28564,-31.51172 z"
     style="" />
</svg>
