<?xml version="1.0" encoding="UTF-8"?>
<svg width="1200pt" height="1200pt" version="1.1" viewBox="0 0 1200 1200" xmlns="http://www.w3.org/2000/svg">
 <path d="m499.69 802.73c32.578-20.391 56.953-54.141 85.078-82.266 2.5781-2.5781 4.4531-5.625 6.5625-8.4375 1.875 2.3438 4.6875 6.0938 7.2656 11.016 3.0469 5.8594 8.9062 17.109 7.7344 31.641-0.46875 4.2188-0.9375 9.8438-4.4531 16.172-6.0938 10.547-16.875 14.531-19.922 15.703-4.9219 1.6406-9.1406 2.1094-12.188 2.3438 4.6875 2.5781 12.891 6.3281 23.203 7.2656 26.719 1.875 47.109-17.344 49.219-19.219 7.9688-7.7344 19.922-23.203 28.125-31.172 1.6406-1.4062 4.9219-4.4531 9.8438-7.0312 0 0 2.8125-1.4062 5.8594-2.3438 10.312-3.5156 38.906 12.656 57.188 17.812 20.625 5.8594 38.906 0.46875 51.797-3.0469 24.844-7.0312 41.484-20.859 50.156-29.062-7.2656 0.46875-17.578 0.46875-29.766-2.1094 0 0-20.859-4.2188-39.141-15.938-17.344-11.016-48.75-58.359-53.438-121.41-1.4062-18.984-1.1719-48.75 9.375-84.375-0.23438 24.609 1.6406 45.234 3.75 60 2.8125 21.797 5.1562 39.375 13.594 61.406 6.5625 17.109 12.656 33.516 27.422 48.047 18.75 18.516 40.781 23.906 56.484 27.422 9.375 2.1094 83.438 18.281 132.89-16.641 79.922-56.25 77.578-233.67-16.172-293.67-55.078-35.391-122.81-17.812-142.27-12.188-42.891-21.562-143.67-66.094-199.45-23.906-18.516 14.062-30.234 38.438-53.672 87.188-27.422 57.422-24.609 81.797-55.781 113.67-12.422 12.656-29.531 33.516-59.766 45-4.9219 1.875-68.906 25.078-104.53-7.7344-24.375-22.5-23.438-60-22.266-92.578 1.6406-55.078 22.266-72.656 11.016-113.2-1.4062-5.1562-7.9688-27.656-27.656-48.047-4.2188-4.4531-39.375-30.234-82.5-33.984-3.2812-0.23438-6.5625 1.4062-9.8438 2.1094 6.3281 16.875 12.422 33.75 18.75 50.391-15 14.297-29.766 28.359-44.766 42.656 6.0938 0.70312 14.766 1.875 24.375 5.1562 8.2031 2.8125 27.656 9.1406 36.562 21.094 11.953 15.938 2.5781 38.438-3.5156 64.922 0 0-11.953 52.266-3.5156 105.7 8.2031 51.797 50.391 105.94 109.92 129.38 78.984 31.172 148.83-7.7344 157.97-12.891-5.1562 7.9688-11.016 16.406-18.047 24.844-16.641 20.625-33.984 36.328-49.219 48.281l0.23438 0.23438-0.23438-0.23438c-39.375 29.531-88.125 60-146.72 85.312-16.172 7.0312-32.109 13.125-47.344 18.516-18.516 5.3906-36.797 11.016-55.312 16.406 71.719-0.46875 129.61-14.062 168.28-26.25 28.359-8.6719 86.484-32.812 148.83-71.953zm88.828-13.359v-0.46875h0.23438zm219.84-66.094c0.46875 0.23438 0.9375 0.46875 1.4062 0.9375-0.23438 0.70312-0.46875 0.9375-0.70312 1.4062-0.46875-0.46875-0.9375-0.70312-1.1719-1.1719-0.23438-0.23438 0.23438-0.70312 0.46875-1.1719zm-188.67-231.09c4.6875 3.5156 9.375 6.7969 14.062 10.312-2.3438 3.5156-8.6719 11.953-19.922 15.703-4.4531 1.4062-16.641 5.3906-23.438-1.6406-4.9219-5.1562-5.1562-14.297-1.6406-19.922 5.1562-7.9688 18.516-11.016 30.938-4.4531zm-406.17 400.08c0.9375-0.23438 1.6406-0.46875 2.5781-0.70312v0.70312h-2.5781zm9.1406-1.1719c0-0.46875-0.23438-0.70312-0.23438-1.1719 2.1094-0.46875 4.2188-0.70312 6.5625-1.1719-2.3438 0.9375-4.4531 1.6406-6.3281 2.3438z"/>
</svg>
