<?xml version="1.0" encoding="UTF-8"?>
<svg width="1200pt" height="1200pt" version="1.1" viewBox="0 0 1200 1200" xmlns="http://www.w3.org/2000/svg">
 <path d="m738.59 429.96h-125.8c-35.121 0-77.465 51.184-98.77 85.305-6.75 10.812-34.441 42.906-52.258 84.633-1.875 4.3906-36.387-0.12109-69.578-28.102 15.781 36.598 58.309 52.422 58.309 52.422s-8.3555 31.656-5.4375 65.152c2.5508 29.285 15.664 59.516 30.145 71.543 72.172 59.938 153.49-8.7617 153.49-8.7617l-15.898-12.25s-11.957 13.996-50.332 12.25c-19.305-0.87891-37.16-4.5859-48.438-17.352-11.094-12.559-15.777-34.098-14.664-44.574 7.9922-75.309 84.523-66.008 89.707-66.008 9.4492 0-18.176 37.332-18.176 37.332s38.914 16.84 62.586 16.84c3.9492 0 14.805 7.8906 16.281 11.836 9.957 26.629 19.918 53.258 29.879 79.883 1.4766 3.9414 13.316 11.402 24.973 10.539 7.3477-0.54297 45.738-5.1367 50.902-7.207 14.535-5.8203 14.535-23.035 14.535-23.035v-288.93s0-31.52-31.453-31.52zm-128.41 118.96c8.0234 0 14.531-6.6562 14.531-14.871 0-8.2109-6.5078-14.867-14.531-14.867-8.0273 0-14.535 6.6562-14.535 14.867 0 8.2148 6.5078 14.871 14.535 14.871z" fill-rule="evenodd"/>
</svg>
