<?xml version="1.0" encoding="UTF-8"?>
<svg width="1200pt" height="1200pt" version="1.1" viewBox="0 0 1200 1200" xmlns="http://www.w3.org/2000/svg">
 <path d="m463.4 666.72c-24.176 15.176-53.801 31.852-82.484 42.91 47.375 117.6 177.74 230.45 177.74 230.45l24.219-22.73c-94.66-125.5-120.03-203.19-119.47-250.63z"/>
 <path d="m270.08 671.83s29.77 20.059 83.953 15.41c7.6797-0.52734 15.559-1.6836 23.539-3.3789 23.473-4.7383 50.488-14.047 80.762-30.582l-0.03125-0.015625c23.199-11.879 44.262-24.871 60.41-35.586l8.1484 10.82c20.336-1.6836 54.895-29.207 77.18-48.887-5.6055-51.102 17.488-144.46 17.488-144.46-1.9258 34.793 3.7617 124.79 3.7617 124.79 0.91406 17.75 2.3594 31.137 4.0273 41.344l-0.007812 0.015626c0.007812 0 0.007812 0.015624 0.007812 0.046874 1.9062 11.555 4.0742 18.938 6.0703 23.645l0.058594 0.13672c0.67969 1.5938 1.3438 2.9102 1.9727 3.9375l4.7148 9.418c16.309 39.426 26.754 33.977 26.754 33.977 16.938-4.2227 144.2-167.8 144.2-167.8 22.625 0 47.164-15.816 66.531-32.215 1.5039-1.2461 2.9102-2.4844 4.3164-3.7266 1.0664-0.94531 2.1016-1.875 3.1211-2.8125 26.102-24.062 35.723-46.082 38.293-53.09 43.125-129.57-157.68-151.24-157.68-151.24-87.852-10.578-162.05 33.32-162.05 33.32-84.797-16.656-137.81 22.398-137.81 22.398s-116.61 194.18-102.99 330.47c0.62109 6.168 1.6562 12.387 2.9102 18.629-27.676 7.0586-59.883 9.9609-92.637 1.3164 0 0-4.6641-1.8438-5.9492-0.44531-0.10547 0.15234-0.21875 0.25-0.29297 0.44531-1.0664 3.0352 1.2305 4.1172 1.2305 4.1172z"/>
</svg>
