<?xml version="1.0" encoding="UTF-8"?>
<svg width="1200pt"
     height="1200pt"
     version="1.1"
     viewBox="0 0 1200 1200"
     xmlns="http://www.w3.org/2000/svg">
  <path fill="#96393B"
        stroke="black"
        stroke-width="40"
        d="m647.52 140.66 2.4727 79.199h92.566v95.039h-89.59l4.3438 107.59c1.7344-2.0391 3.5273-4.0391 5.375-6 56.328-59.879 130.36-101.52 201.31-101.52 39.648-0.22266 78.062 13.797 108.24 39.516 95.027 79.199 95.027 261.35-35.82 366.7-74.125 59.676-140.52 117.2-137.24 201.35l133.2 18v118.8h-664.68v-118.8l133.2-18c3.2773-84.145-63.121-141.67-137.24-201.35-130.8-105.35-130.8-287.5-35.82-366.7 30.16-25.699 68.543-39.719 108.17-39.516 70.945 0 144.97 41.629 201.3 101.5 1.8477 1.9688 3.6406 3.9688 5.375 6l4.3438-107.59h-89.578v-95.039h92.566l2.4727-79.199h95.039m23.809 618.6c29.184 0 138.83-48.277 196.91-127.49 41.82-57.059 52.727-141.72 16.871-174.59l0.003906 0.003906c-12.25-10.586-28.043-16.156-44.223-15.602-42.977 2.2344-81.977 25.863-103.85 62.93-58.078 95.125-65.762 206.4-65.762 254.7m-142.66 0c0-48.359-7.6797-159.6-65.762-254.7h0.003906c-21.859-37.027-60.812-60.641-103.75-62.891-16.18-0.55859-31.973 5.0117-44.223 15.598-35.855 32.867-24.949 117.53 16.871 174.59 58.078 79.199 167.72 127.49 196.91 127.49m118.8-714.57-94.988-0.003906c-22.547 0-44.379 7.9336-61.66 22.418-17.285 14.48-28.918 34.582-32.863 56.781h-0.51562c-25.461 0-49.879 10.117-67.883 28.121-18.004 18-28.117 42.418-28.117 67.879v0.28906c-8.4961-0.80078-16.973-1.1992-25.43-1.1992-62.098-0.14062-122.23 21.762-169.69 61.812-65.52 54.551-102.66 139.79-101.87 233.8 0.80078 54.273 13.688 107.69 37.719 156.36 24.035 48.672 58.609 91.375 101.21 125.01 22.727 18.289 41.711 34.285 56.879 48.707l-5.4375 0.73047h0.003906c-23.023 3.1133-44.137 14.473-59.426 31.965-15.285 17.496-23.711 39.941-23.711 63.172v118.8c0 25.461 10.113 49.879 28.117 67.883 18.004 18.004 42.422 28.117 67.883 28.117h664.61c25.461 0 49.879-10.113 67.883-28.117 18.004-18.004 28.117-42.422 28.117-67.883v-118.8c0-23.23-8.4258-45.676-23.711-63.172-15.289-17.492-36.402-28.852-59.426-31.965l-5.4375-0.73047c15.168-14.398 34.152-30.422 56.879-48.707h0.003906c42.605-33.637 77.18-76.34 101.21-125.01 24.031-48.672 36.918-102.09 37.719-156.36 0.85156-94.008-36.348-179.25-101.87-233.8-47.453-40.051-107.58-61.961-169.68-61.824-8.4492 0-16.926 0.39844-25.43 1.1992v-0.28906c0-25.461-10.113-49.879-28.117-67.883-18.004-18-42.422-28.117-67.883-28.117h-0.51562c-3.9453-22.199-15.578-42.301-32.863-56.781-17.281-14.484-39.109-22.418-61.66-22.418z" />
</svg>
