<?xml version="1.0" encoding="UTF-8" standalone="no"?>
<svg
   width="1200pt"
   height="1200pt"
   version="1.1"
   viewBox="0 0 1200 1200"
   xmlns="http://www.w3.org/2000/svg">
  <path
     d="m 600,164.39941 -0.0176,0.006 c -26.52294,0.027 -51.96196,10.53493 -70.77392,29.23389 -18.80798,18.69596 -29.46827,44.07081 -29.65577,70.59375 -0.188,26.52394 10.11378,52.04295 28.65674,71.00391 -62.79986,44.7699 -179.52099,164.77055 -179.52099,315.01025 0,151.6197 118.80329,212.99861 181.20117,225.60059 L 298.38867,916.80469 V 1035.6035 H 901.58936 V 916.80469 l -237,-41.54297 c 63.06986,-13.86998 178.35937,-75.69151 178.35937,-224.99121 0,-97.7598 -45.53636,-184.92042 -100.98926,-248.2793 -60.88588,47.5199 -110.89013,158.40855 -110.89013,239.90039 h -63.35889 c 0,-116.28976 35.29002,-232.51141 113.35986,-317.53125 14.71108,-20.07396 21.45259,-44.89391 18.92139,-69.65185 -2.531,-24.76196 -14.16042,-47.69884 -32.6294,-64.38282 C 648.89034,173.64582 624.89096,164.40723 600,164.39941 Z"
     style="fill:#81858B" />
  <path
     d="m 599.98389,68.397949 -0.001,0.0073 c -39.81592,0.05859 -78.67977,12.190335 -111.44971,34.800297 -32.77692,22.60494 -57.9266,54.62186 -72.12158,91.8208 -14.19896,37.19892 -16.78103,77.82761 -7.40625,116.51953 -65.43786,64.71486 -156.35009,182.69053 -156.35009,338.72021 v 0.004 c -0.70703,59.46488 14.90607,117.98982 45.14501,169.1997 l -16.12939,2.84327 c -22.21096,3.92578 -42.32824,15.54724 -56.82422,32.82422 -14.49596,17.27696 -22.44845,39.1091 -22.46045,61.66406 v 118.80034 c 0,25.4608 10.11665,49.8779 28.12061,67.8779 17.99996,18.004 42.41845,28.1221 67.87939,28.1221 h 603.20069 c 25.46094,0 49.87795,-10.1181 67.87793,-28.1221 18.00396,-18 28.12207,-42.4171 28.12207,-67.8779 V 916.80176 c 0,-22.58596 -7.96511,-44.44874 -22.48829,-61.7417 -14.52696,-17.29696 -34.68374,-28.91783 -56.92968,-32.81983 l -22.98047,-4.00781 c 29.42594,-51.0469 44.54242,-109.08012 43.75342,-168 0,-108.94978 -44.3054,-219.60067 -124.74024,-311.50049 h -0.003 c -7.12108,-8.16798 -15.58301,-15.06595 -25.02099,-20.39795 10.96498,-39.10492 9.56733,-80.64547 -4.01075,-118.92041 C 771.59254,161.14065 746.50594,127.99993 713.354,104.54297 680.19808,81.086014 640.59981,68.460949 599.98389,68.397949 Z M 600,164.39941 c 24.89096,0.008 48.89034,9.24641 67.3623,25.92627 18.46898,16.68398 30.0984,39.62086 32.6294,64.38282 2.5312,24.75794 -4.21031,49.57789 -18.92139,69.65185 -78.06984,85.01984 -113.35986,201.24149 -113.35986,317.53125 h 63.35889 c 0,-81.49184 50.00425,-192.38049 110.89013,-239.90039 55.4529,63.35888 100.98926,150.5195 100.98926,248.2793 0,149.2997 -115.28951,211.12123 -178.35937,224.99121 l 237,41.54297 V 1035.6035 H 298.38867 V 916.80469 L 529.88965,875.84766 C 467.49177,863.24568 348.68848,801.86677 348.68848,650.24707 c 0,-150.2397 116.72113,-270.24035 179.52099,-315.01025 -18.54296,-18.96096 -28.84474,-44.47997 -28.65674,-71.00391 0.1875,-26.52294 10.84779,-51.89779 29.65577,-70.59375 18.81196,-18.69896 44.25098,-29.20689 70.77392,-29.23389 z"
  />
</svg>
