<?xml version="1.0" encoding="UTF-8" standalone="no"?>
<svg
   width="1200pt"
   height="1200pt"
   version="1.1"
   viewBox="0 0 1200 1200"
   xmlns="http://www.w3.org/2000/svg">
  <path
     d="m 500.83008,226.18359 c -54.95333,-0.43321 -113.79659,2.28536 -159.29151,30.9668 -97.5818,64.61988 -59.33987,224.17463 -52.74609,320.44043 5.28,81.74984 3.95957,197.79667 -109.45019,185.92969 -39.55794,-3.957 -52.74683,-36.92597 -68.57081,-67.25391 -2.63598,-5.27398 -9.22945,-22.41799 -15.823238,-25.05469 -17.143966,-7.91398 -29.011255,18.46115 -31.647949,30.32813 v 0.003 c -5.27399,26.37094 2.635268,54.06678 15.823242,72.53174 29.009945,51.4292 94.947995,69.88988 151.650875,54.06592 52.7419,-14.50498 94.9424,-58.0213 126.59034,-100.22022 22.41794,-29.01194 58.02293,-68.57076 98.90185,-63.29736 35.60194,5.27298 51.42583,36.92286 55.38281,68.5708 9.23048,77.79984 2.64013,159.55951 1.31983,237.36035 61.97988,-1.3203 122.64324,-2.6367 184.62012,0 2.63698,-67.24986 -1.32009,-166.15167 55.38281,-199.12061 25.05394,-14.50396 68.57037,-17.14496 94.94531,0 23.73846,15.82398 29.01224,48.78911 32.96924,75.16407 6.58988,40.88192 7.91016,83.08055 7.91016,123.95947 38.23892,-1.3203 77.79718,-2.6367 116.03902,0 7.91,0 19.7814,2.64159 27.6914,1.32129 13.1837,-2.641 14.5049,-1.32202 14.5049,-17.146 2.6367,-44.8309 2.6367,-90.98823 2.6367,-137.14013 1.3164,-108.1298 6.5888,-218.89952 -1.3212,-327.0293 -6.59,-93.62882 -79.12044,-174.06685 -171.42924,-180.66065 19.78166,43.51192 27.69551,90.98459 17.14453,134.50049 -23.72996,101.5348 -126.59075,181.97553 -226.81055,196.47949 -23.73894,3.954 -34.28376,-29.01069 -10.5498,-35.60449 61.97786,-17.13796 123.95463,-50.10766 159.55957,-106.81054 35.60492,-56.6999 18.46405,-122.63664 -14.50489,-178.01954 -52.74988,-90.98812 -154.28387,-93.62402 -247.90869,-93.62402 -16.81496,0 -34.70078,-0.49573 -53.01855,-0.64014 z"
     style="fill:#EADDB8" />
  <path
     d="m 599.37891,148.80029 c -33.31685,0.27799 -66.63311,2.68804 -98.2793,4.17041 -85.71482,3.957 -176.7003,9.23189 -238.68018,77.80225 -83.07782,94.9448 -52.74473,242.63971 -42.19775,354.72949 2.6367,29.01194 14.50394,67.25437 7.91016,94.94531 -3.957,14.50398 -14.50399,25.05469 -31.64795,25.05469 -18.46096,0 -22.41872,-10.55071 -29.0127,-25.05469 -17.14496,-31.64792 -36.92169,-71.20706 -79.120604,-65.93408 -44.82391,5.2656 -72.5159,44.82323 -79.1088868,85.70215 -6.5937868,48.7929 11.8671758,97.58239 43.5161138,135.82031 32.968934,36.92594 80.441077,51.43049 129.229977,52.75049 l -0.007,0.003 c 58.02288,2.6367 102.85986,-19.78098 149.00976,-54.06592 23.73396,-17.14496 42.1984,-38.24122 59.33936,-60.65918 10.55098,-14.50396 21.09898,-27.69159 35.60596,-39.55957 21.09796,-17.14496 31.64768,-6.59333 34.28466,18.46143 1.3203,21.09796 0,43.51623 0,64.61719 0,60.65988 1.3203,121.31898 0,183.2988 0,14.504 11.86654,26.376 26.37452,26.376 77.80084,1.3203 156.92111,3.957 234.73095,0 14.50398,0 25.05469,-11.8667 25.05469,-25.0547 1.3203,-48.79288 -1.32058,-102.86114 11.8667,-150.33104 7.91018,-29.01194 46.15195,-64.61645 67.25391,-17.14453 7.91018,18.46096 6.59375,47.47294 7.91015,67.2539 2.6367,32.96894 2.63672,65.93391 2.63672,98.90187 0,14.504 11.86655,27.6905 26.37451,26.3745 56.7029,-1.3203 113.41096,-1.3203 170.11084,-7.9102 36.922,-3.957 51.4299,-15.8239 54.0659,-54.06587 3.957,-55.3829 3.9571,-110.77001 5.2735,-166.14991 1.3203,-65.93386 1.3203,-131.86945 2.6367,-197.79931 1.3203,-46.15192 5.2724,-96.267 -1.3213,-142.4209 7.9102,15.82396 14.5047,48.79311 15.8247,52.74609 1.3203,15.82398 2.6367,34.28616 13.188,47.47412 18.461,21.09796 50.1096,15.823 60.6606,-9.23144 7.9102,-19.78096 -23.7339,-29.01144 -31.6479,-9.22998 -1.3203,-3.957 -3.9581,-7.91047 -6.5947,-10.55127 -1.3203,-5.2734 -1.3199,-10.55026 -1.3199,-15.82324 0,-9.23048 5e-4,-17.146 -1.3198,-26.37598 -2.6367,-15.82396 -6.5947,-32.96868 -14.5049,-47.47266 -9.2305,-17.14496 -26.3749,-29.0124 -44.8359,-27.6914 0,-1.3203 -1.3198,-3.95704 -1.3198,-5.27344 C 1044.3964,309.90111 944.17816,245.28404 841.31836,251.87402 817.5844,221.54608 788.57169,195.17064 758.23975,179.34668 710.43733,153.79736 654.90697,148.33697 599.37891,148.80029 Z m -98.54883,77.3833 c 18.31777,0.14441 36.20359,0.64014 53.01855,0.64014 93.62482,0 195.15881,2.6359 247.90869,93.62402 32.96894,55.3829 50.10981,121.31964 14.50489,178.01954 -35.60494,56.70288 -97.58171,89.67258 -159.55957,106.81054 -23.73396,6.5938 -13.18914,39.55849 10.5498,35.60449 100.2198,-14.50396 203.08059,-94.94469 226.81055,-196.47949 10.55098,-43.5159 2.63713,-90.98857 -17.14453,-134.50049 92.3088,6.5938 164.83924,87.03183 171.42924,180.66065 7.91,108.12978 2.6376,218.8995 1.3212,327.0293 0,46.1519 0,92.30923 -2.6367,137.14013 0,15.82398 -1.3212,14.505 -14.5049,17.146 -7.91,1.3203 -19.7814,-1.32129 -27.6914,-1.32129 -38.24184,-2.6367 -77.8001,-1.3203 -116.03902,0 0,-40.87892 -1.32028,-83.07755 -7.91016,-123.95947 -3.957,-26.37496 -9.23078,-59.34009 -32.96924,-75.16407 -26.37494,-17.14496 -69.89137,-14.50396 -94.94531,0 -56.7029,32.96894 -52.74583,131.87075 -55.38281,199.12061 -61.97688,-2.6367 -122.64024,-1.3203 -184.62012,0 1.3203,-77.80084 7.91065,-159.56051 -1.31983,-237.36035 -3.95698,-31.64794 -19.78087,-63.29782 -55.38281,-68.5708 -40.87892,-5.2734 -76.48391,34.28542 -98.90185,63.29736 -31.64794,42.19892 -73.84844,85.71524 -126.59034,100.22022 C 174.07153,843.96459 108.13348,825.50391 79.123535,774.07471 65.935561,755.60975 58.026303,727.91391 63.300293,701.54297 v -0.003 c 2.636694,-11.86698 14.503983,-38.24211 31.647949,-30.32813 6.593788,2.6367 13.187258,19.78071 15.823238,25.05469 15.82398,30.32794 29.01287,63.29691 68.57081,67.25391 113.40976,11.86698 114.73019,-104.17985 109.45019,-185.92969 -6.59378,-96.2658 -44.83571,-255.82055 52.74609,-320.44043 45.49492,-28.68144 104.33818,-31.40001 159.29151,-30.9668 z"
  />
  <path
     fill="#FFFFFF"
     stroke="black"
     stroke-width="40"
     d="m428.57 532.75c9.2305 0 19.781-3.957 27.691-11.867 6.5938-6.5938 11.867-17.145 11.867-27.691-1.3203-21.098-17.145-38.242-38.242-38.242-9.2305 0-19.781 3.957-27.691 11.867-6.5938 6.5938-11.867 17.145-11.867 27.691 0 19.781 15.824 38.242 38.242 38.242z"
     style="fill:#EADDB8" />
</svg>
