<?xml version="1.0" encoding="UTF-8" standalone="no"?>
<svg
   width="1200pt"
   height="1200pt"
   version="1.1"
   viewBox="0 0 1200 1200"
   xmlns="http://www.w3.org/2000/svg">
  <path
     d="m 547.88232,144.40723 c -20.72686,39.31992 -40.80209,108.73843 -11.93115,158.84033 -12.89003,0.81634 -25.59904,3.43471 -37.76221,7.77392 -66.09986,26.48996 -138.61759,95.02941 -174.26953,237.59913 -10.31998,41.2769 -28.89888,61.0431 -50.96484,84.53906 -28.32794,28.17594 -51.31249,61.25838 -67.83545,97.6333 -15.19946,32.17094 -12.97643,69.86584 5.89453,100.02978 18.87496,30.16794 51.80001,48.65235 87.37793,49.05469 30.84394,-0.758 60.06007,-13.98322 80.97803,-36.65918 39.39292,-39.28892 85.93573,-70.69185 137.11963,-92.50781 55.53988,-26.22994 95.73859,-45.2519 118.53955,-138.7207 10.82098,43.6199 6.49138,146.51892 -97.37842,209.2998 -103.8728,62.78988 -125.52198,195.04195 -123.3501,234.27975 h 590.79931 c 0,-372.52918 -49.32014,-694.37504 -314.11962,-744.22994 L 547.87939,144.42041 Z"
     style="fill:#EADDB8" />
  <path
     d="m 547.87793,48.404297 c -3.582,0.0039 -7.16415,0.206056 -10.72705,0.600586 C 505.54894,52.559575 477.75932,71.53249 462.94336,99.669434 440.0374,142.88435 427.31472,190.764 425.74072,239.6499 360.34286,276.64584 273.1,356.28923 230.83008,525.35889 c -4.1172,16.47696 -8.39792,21.42218 -27.79248,42.09814 -35.44894,35.67194 -64.25817,77.37477 -85.07813,123.15967 -14.31996,30.48794 -20.694267,64.10239 -18.530271,97.71533 2.160201,33.61294 12.784661,66.13322 30.890621,94.53516 18.07798,28.25394 42.91427,51.55871 72.26221,67.80469 29.34794,16.24596 62.28089,24.92218 95.81983,25.24218 9.91408,0.004 19.81151,-0.76607 29.60449,-2.28955 -6.9727,28.53899 -10.19799,57.86779 -9.60059,87.23879 1.3516,24.512 12.03874,47.5693 29.8667,64.4443 17.82796,16.871 41.44427,26.2775 65.99121,26.2735 H 1005.104 c 25.461,0 49.8798,-10.1123 67.8838,-28.1163 18,-18.0038 28.1162,-42.4229 28.1162,-67.8837 0,-231.69962 -19.9806,-398.23968 -62.8916,-524.10942 C 981.81452,365.87202 882.66251,262.91133 743.36279,224.94141 L 620.75244,81.94043 C 602.51448,60.667472 575.89348,48.424805 547.87354,48.424805 l 0.009,-0.01758 z m 0.004,96.002933 -0.003,0.0132 143.10059,166.91895 c 264.79948,49.8549 314.11962,371.70076 314.11962,744.22994 H 414.30029 c -2.17188,-39.2378 19.4773,-171.48987 123.3501,-234.27975 103.8698,-62.78088 108.1994,-165.6799 97.37842,-209.2998 -22.80096,93.4688 -62.99967,112.49076 -118.53955,138.7207 -51.1839,21.81596 -97.72671,53.21889 -137.11963,92.50781 -20.91796,22.67596 -50.13409,35.90118 -80.97803,36.65918 -35.57792,-0.40234 -68.50297,-18.88675 -87.37793,-49.05469 -18.87096,-30.16394 -21.09399,-67.85884 -5.89453,-100.02978 16.52296,-36.37492 39.50751,-69.45736 67.83545,-97.6333 22.06596,-23.49596 40.64486,-43.26216 50.96484,-84.53906 35.65194,-142.56972 108.16967,-211.10917 174.26953,-237.59913 12.16317,-4.33921 24.87218,-6.95758 37.76221,-7.77392 -28.87094,-50.1019 -8.79571,-119.52041 11.93115,-158.84033 z"
  />
</svg>
