<?xml version="1.0" encoding="UTF-8" standalone="no"?>
<svg
   width="1200pt"
   height="1200pt"
   version="1.1"
   viewBox="0 0 1200 1200"
   xmlns="http://www.w3.org/2000/svg">
  <path
     d="m 592.24512,188.15625 c -42.64192,0.789 -83.12692,18.90735 -112.13086,50.17529 -29.00394,31.26794 -44.02738,72.99865 -41.61328,115.58057 2.41398,42.58492 22.06261,82.35118 54.41455,110.14014 l 0.004,0.004 -74.25879,52.41357 v 103.13965 h 78 c -3.76998,47.81192 -34.44228,95.65671 -74.1372,137.39063 -37.43294,38.68692 -79.98005,72.07736 -126.45997,99.2373 h 0.004 l -4.94531,2.83155 v 152.77006 h 617.75976 l 0.004,-152.78032 -4.94532,-2.83154 C 857.46199,829.0636 814.91587,795.67669 777.48193,756.98877 737.78601,715.25085 707.11569,667.40851 703.34619,619.59961 h 78.09375 V 516.4585 l -79.72705,-56.28077 c 31.30494,-28.96494 49.46436,-69.42441 50.3042,-112.06933 0.836,-42.63592 -15.71785,-83.78451 -45.86279,-113.96045 -30.13994,-30.17594 -71.26428,-46.78076 -113.90918,-45.9917 z"
     style="fill:#73AF47" />
  <path
     d="m 592.07666,92.29541 c -55.07388,0.64844 -108.43004,19.26315 -151.95996,53.01709 -43.53092,33.74994 -74.84305,80.79333 -89.18701,133.97021 -14.33998,53.1799 -10.92697,109.58952 9.72949,160.64942 -23.97296,18.14096 -38.06104,46.46922 -38.06104,76.53516 v 103.13964 c -0.0351,26.83196 11.19087,52.44551 30.94483,70.60547 l -0.59033,0.62403 h 0.004 c -30.97294,31.94892 -66.13407,59.54702 -104.52099,82.04296 l -4.9336,2.82129 c -14.69896,8.3984 -26.91408,20.53139 -35.41406,35.17237 -8.49608,14.64096 -12.97226,31.26545 -12.96826,48.19043 v 152.77002 c 0,25.461 10.11225,49.8783 28.11621,67.8823 18.00396,18.004 42.42283,28.1177 67.88379,28.1177 h 617.75976 c 25.46096,0 49.87837,-10.1137 67.88233,-28.1177 18.00396,-18.004 28.11769,-42.4213 28.11769,-67.8823 V 859.06348 c 0,-16.92598 -4.472,-33.55047 -12.96828,-48.19043 -8.49998,-14.64098 -20.7151,-26.77337 -35.41406,-35.17237 h 0.003 l -4.94531,-2.82129 C 913.17224,750.37945 878.01537,722.78135 847.04443,690.83643 l -0.58886,-0.62403 h 0.003 c 19.75396,-18.15996 30.97982,-43.77351 30.94482,-70.60547 V 516.46729 c 0.0156,-31.20694 -15.13695,-60.47426 -40.62891,-78.47022 l -5.17089,-3.60059 c 19.44896,-51.53088 21.539,-108.00115 5.95312,-160.83105 C 821.96668,220.73753 789.5555,174.4415 745.24658,141.72656 700.93768,109.01164 647.15656,91.651412 592.07666,92.29541 Z m 0.16846,95.86084 c 42.6449,-0.78906 83.76924,15.81576 113.90918,45.9917 30.14494,30.17594 46.69879,71.32453 45.86279,113.96045 -0.83984,42.64492 -18.99926,83.10439 -50.3042,112.06933 l 79.72705,56.28077 v 103.14111 h -78.09375 c 3.7695,47.8089 34.43982,95.65124 74.13574,137.38916 37.43394,38.68792 79.98006,72.07483 126.45996,99.23877 l 4.94532,2.83154 -0.004,152.78032 H 291.12305 V 859.06934 l 4.94531,-2.83155 h -0.004 c 46.47992,-27.15994 89.02703,-60.55038 126.45997,-99.2373 39.69492,-41.73392 70.36722,-89.57871 74.1372,-137.39063 h -78 V 516.47021 l 74.25879,-52.41357 -0.004,-0.004 c -32.35194,-27.78896 -52.00057,-67.55522 -54.41455,-110.14014 -2.4141,-42.58192 12.60934,-84.31263 41.61328,-115.58057 29.00394,-31.26794 69.48894,-49.38629 112.13086,-50.17529 z"
  />
</svg>
