<?xml version="1.0" encoding="UTF-8" standalone="no"?>
<svg
   width="1200pt"
   height="1200pt"
   version="1.1"
   viewBox="0 0 1200 1200"
   xmlns="http://www.w3.org/2000/svg">
  <path
     d="m 363.76465,796.21143 -72.62402,96.8291 v 126.71927 h 617.75976 l -0.004,-126.71927 -72.6211,-96.8291 c -7.27998,1.75388 -465.22507,1.75388 -472.51025,0 z"
     style="fill:#81858B" />
  <path
     d="m 291.14063,180.24023 v 142.56006 l 126.71923,95.03907 -28.05468,252.479 h 420.4292 l -28.05469,-252.479 126.7207,-95.03907 -0.003,-142.56006 H 750.49805 V 275.2793 H 687.13916 V 180.24023 H 512.89893 v 95.03907 h -63.35889 v -95.03907 z"
     style="fill:#81858B" />
  <path
     d="m 291.14063,84.240234 c -25.46096,0 -49.87983,10.116642 -67.88379,28.120606 -18.00398,17.99996 -28.11621,42.41845 -28.11621,67.87939 v 142.56006 c 0,30.21494 14.227,58.66732 38.39794,76.8003 l 82.8003,62.1372 -25.57324,230.66016 c 0,0 -54.7428,103.60061 -76.42676,143.04053 -11.18398,17.25796 -17.79226,37.08169 -19.19824,57.59765 v 126.71927 c 0,25.4608 10.11223,49.8794 28.11621,67.8794 18.00396,18.0038 42.42283,28.1206 67.88379,28.1206 h 617.75976 c 25.46096,0 49.87836,-10.1168 67.88232,-28.1206 18.00398,-18 28.11769,-42.4186 28.11769,-67.8794 V 893.03613 c -1.5312,-20.49196 -8.12964,-40.28469 -19.19972,-57.59765 -23.01594,-43.10492 -76.42529,-143.04053 -76.42529,-143.04053 l -25.62158,-230.66016 82.80176,-62.1372 v 0.004 c 24.19094,-18.12096 38.43383,-46.57882 38.44483,-76.80176 v -0.003 -142.56006 c 0,-25.46094 -10.11371,-49.87943 -28.11769,-67.87939 C 958.77875,94.356876 934.36135,84.240234 908.90039,84.240234 Z m 0,95.999996 h 158.39941 v 95.03907 h 63.35889 v -95.03907 h 174.24023 v 95.03907 h 63.35889 v -95.03907 h 158.39941 l 0.003,142.56006 -126.7207,95.03907 28.05469,252.479 h -420.4292 l 28.05468,-252.479 -126.71923,-95.03907 z m 72.62402,615.9712 c 7.28518,1.75388 465.23027,1.75388 472.51025,0 l 72.6211,96.8291 0.004,126.71927 H 291.14063 V 893.04053 Z"
  />
</svg>
