<?xml version="1.0" encoding="UTF-8"?>
<svg width="1200pt"
     height="1200pt"
     version="1.1"
     viewBox="0 0 1200 1200"
     xmlns="http://www.w3.org/2000/svg">
  <path fill="#D95A04"
        stroke="black"
        stroke-width="40"
        d="m600 164.4c24.891 0.007812 48.891 9.2461 67.363 25.926 18.469 16.684 30.098 39.621 32.629 64.383 2.5312 24.758-4.2109 49.578-18.922 69.652-78.07 85.02-113.36 201.24-113.36 317.53h63.359c0-81.492 50.004-192.38 110.89-239.9 55.453 63.359 100.99 150.52 100.99 248.28 0 149.3-115.29 211.12-178.36 224.99l237 41.543v118.8h-603.2v-118.8l231.5-40.957c-62.398-12.602-181.2-73.98-181.2-225.6 0-150.24 116.72-270.24 179.52-315.01-18.543-18.961-28.844-44.48-28.656-71.004 0.1875-26.523 10.848-51.898 29.656-70.594 18.812-18.699 44.25-29.207 70.773-29.234m0-96c-39.816 0.058593-78.68 12.191-111.45 34.801-32.777 22.605-57.926 54.621-72.121 91.82-14.199 37.199-16.781 77.828-7.4062 116.52-65.438 64.715-156.35 182.69-156.35 338.72v0.003906c-0.70703 59.465 14.906 117.99 45.145 169.2l-16.129 2.8438c-22.211 3.9258-42.328 15.547-56.824 32.824-14.496 17.277-22.449 39.109-22.461 61.664v118.8c0 25.461 10.117 49.879 28.121 67.879 18 18.004 42.418 28.121 67.879 28.121h603.2c25.461 0 49.879-10.117 67.879-28.121 18.004-18 28.121-42.418 28.121-67.879v-118.8c0-22.586-7.9648-44.449-22.488-61.742-14.527-17.297-34.684-28.918-56.93-32.82l-22.98-4.0078c29.426-51.047 44.543-109.08 43.754-168 0-108.95-44.305-219.6-124.74-311.5h-0.003906c-7.1211-8.168-15.582-15.066-25.02-20.398 10.965-39.105 9.5664-80.645-4.0117-118.92-13.574-38.273-38.66-71.414-71.812-94.871-33.156-23.457-72.754-36.082-113.37-36.145z" />
</svg>
