<?xml version="1.0" encoding="UTF-8"?>
<svg width="1200pt"
     height="1200pt"
     version="1.1"
     viewBox="0 0 1200 1200"
     xmlns="http://www.w3.org/2000/svg">
  <path fill="#FFFFFF"
        stroke="black"
        stroke-width="40"
        d="m1004.9 322.8v-142.56c0-25.461-10.113-49.879-28.117-67.879-18.004-18.004-42.422-28.121-67.883-28.121h-617.76c-25.461 0-49.879 10.117-67.883 28.121-18.004 18-28.117 42.418-28.117 67.879v142.56c0 30.215 14.227 58.668 38.398 76.801l82.801 62.137-25.574 230.66s-54.742 103.6-76.426 143.04c-11.184 17.258-17.793 37.082-19.199 57.598v126.72c0 25.461 10.113 49.879 28.117 67.879 18.004 18.004 42.422 28.121 67.883 28.121h617.76c25.461 0 49.879-10.117 67.883-28.121 18.004-18 28.117-42.418 28.117-67.879v-126.72c-1.5312-20.492-8.1289-40.285-19.199-57.598-23.016-43.105-76.426-143.04-76.426-143.04l-25.621-230.66 82.801-62.137v0.003906c24.191-18.121 38.434-46.578 38.445-76.801zm-96 696.96h-617.76v-126.72l72.625-96.828c7.2852 1.7539 465.23 1.7539 472.51 0l72.621 96.828zm0-696.96-126.72 95.039 28.055 252.48h-420.43l28.055-252.48-126.72-95.039v-142.56h158.4v95.039h63.359v-95.039h174.24v95.039h63.359v-95.039h158.4z" />
</svg>
