<?xml version="1.0" encoding="UTF-8"?>
<svg width="1200pt"
     height="1200pt"
     version="1.1"
     viewBox="0 0 1200 1200"
     xmlns="http://www.w3.org/2000/svg">
  <path
    fill="#96393B"
    stroke="black"
    stroke-width="40"
    d="m742.56 148.56c27.152-0.035156 52.43 13.836 66.977 36.758 14.551 22.922 16.348 51.699 4.7578 76.25-11.59 24.555-34.949 41.457-61.895 44.793l35.281 285.72 170.27-147.88c-19.043-17.715-28.129-43.68-24.289-69.402 3.8359-25.723 20.105-47.902 43.484-59.293 23.383-11.387 50.875-10.523 73.496 2.3164 22.617 12.836 37.457 35.996 39.668 61.91 2.2109 25.914-8.4883 51.254-28.605 67.738-20.117 16.48-47.066 21.992-72.039 14.73l-88.703 304.12-91.68 150 92.902 16.297v118.8l-603.14-0.003907v-118.8l91.727-16.223-91.727-150.07-88.703-304.11c-25.07 7.3164-52.133 1.8008-72.344-14.738-20.211-16.539-30.969-41.98-28.754-68 2.2109-26.023 17.109-49.281 39.82-62.172 22.715-12.887 50.32-13.754 73.797-2.3125 23.473 11.445 39.801 33.723 43.637 59.555 3.8359 25.832-5.3047 51.895-24.441 69.668l170.27 147.86 35.281-285.72c-25.793-3.2266-48.359-18.898-60.383-41.941-12.027-23.039-11.984-50.516 0.11719-73.52 12.102-23.004 34.719-38.602 60.52-41.746 25.801-3.1406 51.5 6.5742 68.77 26 17.266 19.426 23.902 46.09 17.758 71.344-6.1445 25.254-24.289 45.887-48.551 55.207l114.17 258.7 114.13-258.7c-23.223-8.9102-40.91-28.211-47.766-52.121-6.8516-23.914-2.0742-49.652 12.906-69.512 14.977-19.859 38.414-31.527 63.285-31.512m0-96c-27.895 0-55.383 6.668-80.18 19.441s-46.184 31.289-62.379 54c-21.574-30.199-52.176-52.766-87.402-64.449-35.223-11.684-73.246-11.879-108.59-0.5625-35.344 11.32-66.18 33.566-88.066 63.539-21.883 29.973-33.684 66.121-33.703 103.23 0 3.6484 0.11328 7.2734 0.33594 10.871-28.184-18.062-60.953-27.672-94.43-27.691-33.477-0.019531-66.258 9.5508-94.465 27.582-28.207 18.031-50.656 43.766-64.691 74.156-14.035 30.395-19.07 64.172-14.512 97.336 4.5625 33.164 18.531 64.328 40.254 89.801 21.719 25.473 50.281 44.191 82.309 53.938l69.84 239.45c2.3789 8.1484 5.8242 15.945 10.25 23.184l24.168 39.602c-24.078 18.129-38.246 46.516-38.258 76.656v118.8c0 25.461 10.113 49.879 28.117 67.879 18.004 18.004 42.422 28.121 67.883 28.121h603.14c25.461 0 49.879-10.117 67.883-28.121 18.004-18 28.117-42.418 28.117-67.879v-118.8c0-30.527-14.52-59.238-39.109-77.328l23.797-38.93c4.4258-7.2383 7.8711-15.035 10.25-23.184l69.84-239.45v0.003906c32.027-9.7461 60.59-28.465 82.309-53.938 21.723-25.473 35.691-56.637 40.254-89.801 4.5586-33.164-0.47656-66.941-14.512-97.336-14.035-30.391-36.484-56.125-64.691-74.156-28.207-18.031-60.988-27.602-94.465-27.582-33.477 0.019532-66.246 9.6289-94.43 27.691 0.23047-3.6016 0.34375-7.2227 0.33594-10.871-0.054688-46.449-18.531-90.984-51.375-123.83-32.848-32.844-77.379-51.32-123.83-51.375z" />
</svg>
