<?xml version="1.0" encoding="UTF-8"?>
<svg width="1200pt"
     height="1200pt"
     version="1.1"
     viewBox="0 0 1200 1200"
     xmlns="http://www.w3.org/2000/svg">
  <path
    fill="#5EC5DD"
    stroke="black"
    stroke-width="40"
    d="m547.88 144.42 143.1 166.92c264.8 49.855 314.12 371.7 314.12 744.23h-590.8c-2.1719-39.238 19.477-171.49 123.35-234.28 103.87-62.781 108.2-165.68 97.379-209.3-22.801 93.469-63 112.49-118.54 138.72-51.184 21.816-97.727 53.219-137.12 92.508-20.918 22.676-50.133 35.902-80.977 36.66-35.578-0.40234-68.504-18.887-87.379-49.055-18.871-30.164-21.094-67.859-5.8945-100.03 16.523-36.375 39.508-69.457 67.836-97.633 22.066-23.496 40.645-43.262 50.965-84.539 35.652-142.57 108.17-211.11 174.27-237.6h-0.003906c12.164-4.3398 24.875-6.957 37.766-7.7734-28.871-50.102-8.7969-119.52 11.93-158.84m0-96-0.003907-0.003906c-3.582 0.003906-7.1641 0.20703-10.727 0.60156-31.602 3.5547-59.391 22.527-74.207 50.664-22.906 43.215-35.629 91.094-37.203 139.98-65.398 36.996-152.64 116.64-194.91 285.71-4.1172 16.477-8.3984 21.422-27.793 42.098-35.449 35.672-64.258 77.375-85.078 123.16-14.32 30.488-20.695 64.102-18.531 97.715 2.1602 33.613 12.785 66.133 30.891 94.535 18.078 28.254 42.914 51.559 72.262 67.805 29.348 16.246 62.281 24.922 95.82 25.242 9.9141 0.003906 19.812-0.76562 29.605-2.2891-6.9727 28.539-10.199 57.867-9.6016 87.238 1.3516 24.512 12.039 47.57 29.867 64.445 17.828 16.871 41.445 26.277 65.992 26.273h590.84c25.461 0 49.879-10.113 67.883-28.117 18-18.004 28.117-42.422 28.117-67.883 0-231.7-19.98-398.24-62.891-524.11-56.398-165.6-155.55-268.56-294.85-306.53l-122.61-143c-18.238-21.273-44.859-33.516-72.879-33.516z" />
</svg>
